<?xml version="1.0" encoding="UTF-8" standalone="no"?>
<!-- Created with Inkscape (http://www.inkscape.org/) -->

<svg
   xmlns:dc="http://purl.org/dc/elements/1.1/"
   xmlns:cc="http://creativecommons.org/ns#"
   xmlns:rdf="http://www.w3.org/1999/02/22-rdf-syntax-ns#"
   xmlns:svg="http://www.w3.org/2000/svg"
   xmlns="http://www.w3.org/2000/svg"
   xmlns:sodipodi="http://sodipodi.sourceforge.net/DTD/sodipodi-0.dtd"
   xmlns:inkscape="http://www.inkscape.org/namespaces/inkscape"
   width="32.747593mm"
   height="32.949181mm"
   viewBox="0 0 116.03478 116.74906"
   id="svg2"
   version="1.1"
   inkscape:version="0.91 r13725"
   sodipodi:docname="logoshield-cercle.svg">
  <defs
     id="defs4" />
  <sodipodi:namedview
     id="base"
     pagecolor="#000000"
     bordercolor="#666666"
     borderopacity="1.0"
     inkscape:pageopacity="0"
     inkscape:pageshadow="2"
     inkscape:zoom="1.979899"
     inkscape:cx="41.225542"
     inkscape:cy="72.756291"
     inkscape:document-units="px"
     inkscape:current-layer="layer2"
     showgrid="false"
     inkscape:window-width="1366"
     inkscape:window-height="745"
     inkscape:window-x="-8"
     inkscape:window-y="-8"
     inkscape:window-maximized="1"
     fit-margin-top="0"
     fit-margin-left="0"
     fit-margin-right="0"
     fit-margin-bottom="0" />
  <metadata
     id="metadata7">
    <rdf:RDF>
      <cc:Work
         rdf:about="">
        <dc:format>image/svg+xml</dc:format>
        <dc:type
           rdf:resource="http://purl.org/dc/dcmitype/StillImage" />
        <dc:title></dc:title>
      </cc:Work>
    </rdf:RDF>
  </metadata>
  <g
     inkscape:label="Calque 1"
     inkscape:groupmode="layer"
     id="layer1"
     transform="translate(-418.41117,-416.8448)" />
  <g
     inkscape:groupmode="layer"
     id="layer2"
     inkscape:label="Calque 2"
     transform="translate(-418.41117,-416.8448)">
    <path
       style="fill:#000000"
       d=""
       id="path3369"
       inkscape:connector-curvature="0" />
    <path
       style="fill:#000000"
       d=""
       id="path3361"
       inkscape:connector-curvature="0" />
    <path
       style="fill:#000000"
       d=""
       id="path3359"
       inkscape:connector-curvature="0" />
    <path
       style="fill:none;fill-opacity:1;fill-rule:evenodd;stroke:#ffffff;stroke-width:1px;stroke-linecap:butt;stroke-linejoin:miter;stroke-opacity:1"
       d="m 448.88654,486.5099 6.94479,0.12627"
       id="path4369"
       inkscape:connector-curvature="0"
       sodipodi:nodetypes="cc" />
    <path
       style="fill:none;fill-opacity:1;fill-rule:evenodd;stroke:#ffffff;stroke-width:1px;stroke-linecap:butt;stroke-linejoin:miter;stroke-opacity:1"
       d="m 454.94745,499.89442 8.08122,0"
       id="path4371"
       inkscape:connector-curvature="0" />
    <path
       style="fill:none;fill-opacity:1;fill-rule:evenodd;stroke:#ffffff;stroke-width:1px;stroke-linecap:butt;stroke-linejoin:miter;stroke-opacity:1"
       d="m 455.45253,486.63617 c 0,0 -0.50508,10.6066 7.19734,13.13198"
       id="path4373"
       inkscape:connector-curvature="0"
       sodipodi:nodetypes="cc" />
    <path
       style="fill:#ffffff;fill-opacity:1;stroke:#ffffff;stroke-width:1.02193618;stroke-linejoin:bevel;stroke-miterlimit:1.79999995;stroke-dasharray:none;stroke-opacity:1"
       d="m 455.48343,498.65045 c -1.67454,-2.34655 -3.85842,-6.20141 -5.30297,-9.36048 -0.48062,-1.05107 -0.87385,-1.94218 -0.87385,-1.98023 0,-0.0953 3.8964,-0.0853 4.81978,0.0122 l 0.74974,0.0793 0,0.74543 c 0,0.40998 0.0936,1.34979 0.20811,2.08844 0.11445,0.73867 0.24787,1.67015 0.29646,2.06997 0.0553,0.45483 0.18457,0.8078 0.34541,0.94297 0.14137,0.11881 0.30572,0.35748 0.36522,0.53035 0.18214,0.52923 1.16527,2.22008 1.66064,2.85607 0.51797,0.66498 1.91794,1.94597 2.69368,2.46471 l 0.49983,0.33424 -2.45064,9.9e-4 -2.45065,10e-4 -0.56076,-0.78581 z"
       id="path4381"
       inkscape:connector-curvature="0" />
    <path
       style="fill:none;fill-opacity:1;fill-rule:evenodd;stroke:#ffffff;stroke-width:1px;stroke-linecap:butt;stroke-linejoin:miter;stroke-opacity:1"
       d="m 503.99844,486.63613 -6.94479,0.12627"
       id="path4369-5"
       inkscape:connector-curvature="0"
       sodipodi:nodetypes="cc" />
    <path
       style="fill:none;fill-opacity:1;fill-rule:evenodd;stroke:#ffffff;stroke-width:1px;stroke-linecap:butt;stroke-linejoin:miter;stroke-opacity:1"
       d="m 498.0638,500.02065 -8.08122,0"
       id="path4371-8"
       inkscape:connector-curvature="0" />
    <path
       style="fill:none;fill-opacity:1;fill-rule:evenodd;stroke:#ffffff;stroke-width:1px;stroke-linecap:butt;stroke-linejoin:miter;stroke-opacity:1"
       d="m 497.55872,486.7624 c 0,0 0.50508,10.6066 -7.19734,13.13198"
       id="path4373-5"
       inkscape:connector-curvature="0"
       sodipodi:nodetypes="cc" />
    <path
       style="fill:#ffffff;fill-opacity:1;stroke:#ffffff;stroke-width:0.80488485;stroke-linejoin:bevel;stroke-miterlimit:1.79999995;stroke-dasharray:none;stroke-opacity:1"
       d="m 497.04418,499.01034 c 1.60323,-2.4219 3.69409,-6.40052 5.07712,-9.66102 0.46015,-1.08482 0.83664,-2.00453 0.83664,-2.04381 0,-0.0984 -3.73046,-0.0881 -4.61451,0.0126 l -0.71781,0.0818 0,0.76937 c 0,0.42314 -0.0897,1.39312 -0.19925,2.15549 -0.10958,0.76238 -0.23731,1.72377 -0.28384,2.13643 -0.053,0.46943 -0.17671,0.83374 -0.33069,0.97324 -0.13536,0.12263 -0.29271,0.36896 -0.34968,0.54738 -0.17437,0.54622 -1.11563,2.29136 -1.58991,2.94777 -0.49591,0.68633 -1.83626,2.00845 -2.57897,2.54385 l -0.47854,0.34496 2.34627,10e-4 2.34628,0.001 0.53689,-0.81104 z"
       id="path4381-1"
       inkscape:connector-curvature="0" />
  </g>
  <g
     inkscape:groupmode="layer"
     id="layer3"
     inkscape:label="Calque 3"
     transform="translate(-418.41117,-416.8448)">
    <ellipse
       style="fill:none;fill-rule:evenodd;stroke:#ffffff;stroke-width:4;stroke-linecap:butt;stroke-linejoin:miter;stroke-miterlimit:4;stroke-dasharray:none;stroke-opacity:1"
       id="path3401"
       cx="476.42856"
       cy="475.21933"
       rx="56.017387"
       ry="56.374531" />
  </g>
  <g
     inkscape:groupmode="layer"
     id="layer4"
     inkscape:label="Calque 4"
     transform="translate(-418.41117,-416.8448)">
    <path
       sodipodi:type="star"
       style="fill:#ffffff;fill-opacity:1;stroke:#ffffff;stroke-width:4;stroke-miterlimit:4;stroke-dasharray:none;stroke-opacity:1"
       id="path4229"
       sodipodi:sides="3"
       sodipodi:cx="476.73825"
       sodipodi:cy="494.55603"
       sodipodi:r1="7.8571429"
       sodipodi:r2="3.9285715"
       sodipodi:arg1="-1.5707963"
       sodipodi:arg2="-0.52359878"
       inkscape:flatsided="true"
       inkscape:rounded="0"
       inkscape:randomized="0"
       d="m 476.73825,486.69889 6.80449,11.78571 -13.60897,0 z"
       inkscape:transform-center-y="-1.9642857" />
    <circle
       style="color:#000000;clip-rule:nonzero;display:inline;overflow:visible;visibility:visible;opacity:1;isolation:auto;mix-blend-mode:normal;color-interpolation:sRGB;color-interpolation-filters:linearRGB;solid-color:#000000;solid-opacity:1;fill:#ffffff;fill-opacity:1;fill-rule:evenodd;stroke:#ffffff;stroke-width:1.10808361px;stroke-linecap:butt;stroke-linejoin:miter;stroke-miterlimit:4;stroke-dasharray:none;stroke-dashoffset:0;stroke-opacity:1;color-rendering:auto;image-rendering:auto;shape-rendering:auto;text-rendering:auto;enable-background:accumulate"
       id="path4247"
       cx="476.77649"
       cy="480.45901"
       r="3.5714285" />
    <path
       style="fill:none;fill-opacity:1;fill-rule:evenodd;stroke:#ffffff;stroke-width:4;stroke-linecap:butt;stroke-linejoin:miter;stroke-miterlimit:4;stroke-dasharray:none;stroke-opacity:1"
       d="m 467.80968,461.23458 c 0,0 -6.78571,3.21428 -7.85714,15 -1.07143,11.78571 12.85714,16.42857 12.85714,16.42857"
       id="path4249"
       inkscape:connector-curvature="0" />
    <path
       style="fill:none;fill-opacity:1;fill-rule:evenodd;stroke:#ffffff;stroke-width:4.0936327;stroke-linecap:butt;stroke-linejoin:miter;stroke-miterlimit:4;stroke-dasharray:none;stroke-opacity:1"
       d="m 485.02627,460.86857 c 0,0 7.12342,3.20693 8.24818,14.96566 1.12475,11.75873 -13.49701,16.39097 -13.49701,16.39097"
       id="path4249-0"
       inkscape:connector-curvature="0" />
    <path
       style="fill:none;fill-opacity:1;fill-rule:evenodd;stroke:#ffffff;stroke-width:4;stroke-linecap:butt;stroke-linejoin:miter;stroke-miterlimit:4;stroke-dasharray:none;stroke-opacity:1"
       d="m 465.77142,450.10187 10.71429,11.07143 11.07143,-10.71429"
       id="path4266"
       inkscape:connector-curvature="0" />
    <rect
       style="fill:#ffffff;fill-opacity:1;stroke:#ffffff;stroke-width:3.38937211;stroke-miterlimit:4;stroke-dasharray:none;stroke-opacity:1"
       id="rect4268"
       width="4.235374"
       height="4.5407753"
       x="659.97394"
       y="-38.493305"
       transform="matrix(0.68246932,0.73091425,-0.67642911,0.73650775,0,0)"
       inkscape:transform-center-x="0.29077655"
       inkscape:transform-center-y="0.31402121" />
    <path
       style="fill:none;fill-opacity:1;fill-rule:evenodd;stroke:#ffffff;stroke-width:2.5;stroke-linecap:butt;stroke-linejoin:miter;stroke-miterlimit:4;stroke-dasharray:none;stroke-opacity:1"
       d="m 476.02397,519.09172 c 0,0 -35.35715,-10.71429 -32.85715,-72.85714"
       id="path4270"
       inkscape:connector-curvature="0" />
    <path
       style="fill:none;fill-opacity:1;fill-rule:evenodd;stroke:#ffffff;stroke-width:2.56031752;stroke-linecap:butt;stroke-linejoin:miter;stroke-miterlimit:4;stroke-dasharray:none;stroke-opacity:1"
       d="m 475.30042,519.11152 c 0,0 37.22757,-10.96179 34.60425,-73.07543"
       id="path4270-9"
       inkscape:connector-curvature="0"
       sodipodi:nodetypes="cc" />
    <path
       style="fill:none;fill-opacity:1;fill-rule:evenodd;stroke:#ffffff;stroke-width:2.5;stroke-linecap:butt;stroke-linejoin:miter;stroke-miterlimit:4;stroke-dasharray:none;stroke-opacity:1"
       d="m 442.44682,447.51306 c 0,0 8.5863,-1.26269 10.85914,-6.31345"
       id="path4287"
       inkscape:connector-curvature="0" />
    <path
       style="fill:none;fill-opacity:1;fill-rule:evenodd;stroke:#ffffff;stroke-width:2.33157444;stroke-linecap:butt;stroke-linejoin:miter;stroke-miterlimit:4;stroke-dasharray:none;stroke-opacity:1"
       d="m 510.89393,447.0687 c 0,0 -7.3532,-1.28247 -9.29963,-6.41232"
       id="path4287-9"
       inkscape:connector-curvature="0" />
    <path
       style="fill:none;fill-opacity:1;fill-rule:evenodd;stroke:#ffffff;stroke-width:2.55209088;stroke-linecap:butt;stroke-linejoin:miter;stroke-miterlimit:4;stroke-dasharray:none;stroke-opacity:1"
       d="m 452.31366,441.70419 50.36458,-0.50408 -0.52737,0"
       id="path4304"
       inkscape:connector-curvature="0" />
    <path
       style="fill:#ffffff;fill-opacity:1;fill-rule:evenodd;stroke:#ffffff;stroke-width:0.96813089px;stroke-linecap:butt;stroke-linejoin:miter;stroke-opacity:1"
       d="m 471.22167,442.91407 2.9303,5.87424 5.01593,-0.0256 2.68865,-6.07554 z"
       id="path4306"
       inkscape:connector-curvature="0"
       sodipodi:nodetypes="ccccc" />
    <path
       style="fill:#ffffff;fill-opacity:1;fill-rule:evenodd;stroke:#ffffff;stroke-width:1px;stroke-linecap:butt;stroke-linejoin:miter;stroke-opacity:1"
       d="m 465.93286,513.53148 3.78807,-4.54568 5.68211,3.91434 0.50508,0.37881 6.18718,-3.91435 0.63135,-0.3788 2.90418,3.53553 -7.82868,5.55584 -4.41941,0.12627 z"
       id="path4308"
       inkscape:connector-curvature="0" />
    <path
       style="fill:#ffffff;fill-opacity:1;fill-rule:evenodd;stroke:#ffffff;stroke-width:0.92186081px;stroke-linecap:butt;stroke-linejoin:miter;stroke-opacity:1"
       d="m 444.66607,471.37779 c 1.40628,-4.38343 5.03568,-4.39662 5.03568,-4.39662 -0.22113,-6.81804 -0.23422,-12.26424 -0.23422,-12.26424 0,0 -4.09881,-0.11571 -5.50412,-1.96691 -1.4053,-1.85122 -0.70264,6.59493 -0.70264,6.59493 z"
       id="path4312"
       inkscape:connector-curvature="0"
       sodipodi:nodetypes="cscscc" />
    <path
       sodipodi:nodetypes="cscscc"
       inkscape:connector-curvature="0"
       id="path4316"
       d="m 508.24,470.87271 c -1.40628,-4.38343 -5.03568,-4.39662 -5.03568,-4.39662 0.22113,-6.81804 0.23422,-12.26424 0.23422,-12.26424 0,0 4.09881,-0.11571 5.50412,-1.96691 1.4053,-1.85122 0.70264,6.59493 0.70264,6.59493 z"
       style="fill:#ffffff;fill-opacity:1;fill-rule:evenodd;stroke:#ffffff;stroke-width:0.92186081px;stroke-linecap:butt;stroke-linejoin:miter;stroke-opacity:1" />
  </g>
</svg>
